<svg width="307" height="85" viewBox="0 0 307 85" fill="none" xmlns="http://www.w3.org/2000/svg">
<path d="M51.578 84.024C45.3487 84.024 39.8873 82.5734 35.194 79.672C30.586 76.6854 27.002 72.6747 24.442 67.64C21.882 62.6054 20.602 57.0587 20.602 51C20.602 44.856 21.882 39.3094 24.442 34.36C27.002 29.3254 30.586 25.3574 35.194 22.456C39.8873 19.4694 45.3487 17.976 51.578 17.976C56.8687 17.976 61.3913 19 65.146 21.048C68.986 23.096 72.1007 25.8694 74.49 29.368V19H84.09V83H74.49V72.76C72.1007 76.1734 68.986 78.904 65.146 80.952C61.3913 83 56.8687 84.024 51.578 84.024ZM52.858 75.32C57.6367 75.32 61.6473 74.2107 64.89 71.992C68.218 69.7734 70.7353 66.8294 72.442 63.16C74.1487 59.4054 75.002 55.352 75.002 51C75.002 46.5627 74.1487 42.5094 72.442 38.84C70.7353 35.1707 68.218 32.2267 64.89 30.008C61.6473 27.7894 57.6367 26.68 52.858 26.68C48.1647 26.68 44.1113 27.7894 40.698 30.008C37.2847 32.2267 34.682 35.1707 32.89 38.84C31.098 42.5094 30.202 46.5627 30.202 51C30.202 55.352 31.098 59.4054 32.89 63.16C34.682 66.8294 37.2847 69.7734 40.698 71.992C44.1113 74.2107 48.1647 75.32 52.858 75.32Z" fill="#FFA800"/>
<path d="M206.07 83V72.76V19H215.67V28.984C217.974 25.912 220.79 23.3094 224.118 21.176C227.446 19.0427 231.713 17.976 236.918 17.976C241.355 17.976 245.494 19.0427 249.334 21.176C253.259 23.224 256.417 26.3387 258.806 30.52C261.281 34.616 262.518 39.6934 262.518 45.752V83H252.918V46.008C252.918 40.2054 251.254 35.5547 247.926 32.056C244.598 28.472 240.289 26.68 234.998 26.68C231.414 26.68 228.171 27.4907 225.27 29.112C222.369 30.7334 220.022 33.0374 218.23 36.024C216.523 38.9254 215.67 42.296 215.67 46.136V83H206.07Z" fill="#FFA800"/>
<path d="M206.07 83V72.76H194L206.07 83Z" fill="#FFA800"/>
<path d="M294.156 83C288.854 83 284.556 78.702 284.556 73.4V40.448H272.5V32H284.556V17.088H294.156V32H306.876V40.448H294.156V72.76V83Z" fill="#FFA800"/>
<path d="M294.156 72.76V83H305.574V72.76H294.156Z" fill="#FFA800"/>
<path d="M110.28 83C104.978 83 100.68 78.702 100.68 73.4V40.448H88.624V32H100.68V17.088H110.28V32H123V40.448H110.28V72.76V83Z" fill="#FFA800"/>
<path d="M110.28 72.76V83H121.698V72.76H110.28Z" fill="#FFA800"/>
<path d="M10.582 83C5.28006 83 0.981995 78.702 0.981995 73.4V40.448H0.925995V32H0.981995V17.088H10.582V32V40.448V72.76V83Z" fill="#FFA800"/>
<path d="M10.582 72.76V83H22V72.76H10.582Z" fill="#FFA800"/>
<path fill-rule="evenodd" clip-rule="evenodd" d="M131 83L162.987 40.1208L133.181 0H144.691L168.439 32.5982L192.309 0H203.819L174.013 40.1208L168.439 47.3927L142.511 83H131ZM190.006 61.5604L184 68.5L191.108 78.3667V78.3667C193.233 81.2783 196.621 83 200.225 83H206L190.006 61.5604Z" fill="#FFA800"/>
</svg>
