<?xml version="1.0" encoding="UTF-8"?>
<svg width="159px" height="52px" viewBox="0 0 159 52" version="1.1" xmlns="http://www.w3.org/2000/svg" xmlns:xlink="http://www.w3.org/1999/xlink">
    <!-- Generator: Sketch 57.1 (83088) - https://sketch.com -->
    <title>latXnt 2</title>
    <desc>Created with Sketch.</desc>
    <g id="Page-1" stroke="none" stroke-width="1" fill="none" fill-rule="evenodd">
        <g id="Artboard" transform="translate(-139.000000, -222.000000)" fill="#E49124" fill-rule="nonzero">
            <g id="latXnt-2" transform="translate(139.000000, 222.000000)">
                <path d="M4.428,51.5 L2.84217094e-14,51.5 L2.84217094e-14,11 L4.428,11 L4.428,51.5 Z M46.816,12.008 L46.816,50.24 L41.992,50.24 L41.992,43.688 C37.6239782,48.9200262 32.6320281,51.536 27.016,51.536 C21.3999719,51.536 16.6600193,49.53202 12.796,45.524 C8.93198068,41.51598 7,36.7400277 7,31.196 C7,25.6519723 8.94398056,20.9000198 12.832,16.94 C16.7200194,12.9799802 21.3759729,11 26.8,11 C33.0400312,11 38.1039806,13.6639734 41.992,18.992 L41.992,12.008 L46.816,12.008 Z M42.28,31.304 C42.28,26.9359782 40.8160146,23.252015 37.888,20.252 C34.9599854,17.251985 31.3720212,15.752 27.124,15.752 C22.8759788,15.752 19.2880146,17.2999845 16.36,20.396 C13.4319854,23.4920155 11.968,27.1519789 11.968,31.376 C11.968,35.6000211 13.4559851,39.2599845 16.432,42.356 C19.4080149,45.4520155 22.9719792,47 27.124,47 C31.2760208,47 34.8399851,45.5120149 37.816,42.536 C42.089247,38.262753 42.28,37.3472839 42.28,31.304 Z M65.256,25.218 L59.424,25.218 L59.424,45.846 C59.424,46.6020038 59.5319989,47.0609992 59.748,47.223 C59.9640011,47.3850008 60.5039957,47.466 61.368,47.466 L63.96,47.466 L63.96,51.3 C62.2319914,51.5880014 60.9180045,51.732 60.018,51.732 C58.2899914,51.732 57.0120041,51.3090042 56.184,50.463 C55.3559959,49.6169958 54.942,48.2760092 54.942,46.44 L54.942,25.218 L49.866,25.218 L49.866,21.33 L54.942,21.33 L54.942,10.26 L59.424,10.26 L59.424,21.33 L65.256,21.33 L65.256,25.218 Z M99.368,39.383 L103.811733,46.6514355 L107.024,46.6514355 L107.024,51.696 L100.976,51.696 L98.2638627,47.3304742 L96.338,44.231 L99.368,39.383 Z M75.128,0 L87.512,20.16 L100.04,0 L106.016,0 L90.608,25.056 L90.62,25.076 L87.521,30.037 L87.512,30.024 L84.572,34.755 L79.8945022,42.242059 L79.914,42.254 L74.048,51.696 L68,51.696 L84.488,25.056 L69.08,0 L75.128,0 Z M107.024,13.464 L111.992,13.464 L111.992,20.304 C115.92802,15.0719738 120.703972,12.456 126.32,12.456 C129.200014,12.456 131.791988,13.2359922 134.096,14.796 C136.400012,16.3560078 138.031995,18.3959874 138.992,20.916 C139.952005,23.4360126 140.432,27.1439755 140.432,32.04 L140.432,51.696 L135.536,51.696 L135.536,33.48 C135.536,29.0159777 135.332002,25.9920079 134.924,24.408 C134.515998,22.8239921 133.892004,21.4800055 133.052,20.376 C132.211996,19.2719945 131.144006,18.4320029 129.848,17.856 C128.551994,17.2799971 126.980009,16.992 125.132,16.992 C123.283991,16.992 121.472009,17.4479954 119.696,18.36 C117.919991,19.2720046 116.408006,20.5439918 115.16,22.176 C113.911994,23.8080082 113.072002,25.4879914 112.64,27.216 C112.207998,28.9440086 111.992,32.4239738 111.992,37.656 L111.992,51.696 L107.024,51.696 L107.024,13.464 Z M158.39,24.958 L152.558,24.958 L152.558,45.586 C152.558,46.3420038 152.665999,46.8009992 152.882,46.963 C153.098001,47.1250008 153.637996,47.206 154.502,47.206 L157.094,47.206 L157.094,51.04 C155.365991,51.3280014 154.052005,51.472 153.152,51.472 C151.423991,51.472 150.146004,51.0490042 149.318,50.203 C148.489996,49.3569958 148.076,48.0160092 148.076,46.18 L148.076,24.958 L143,24.958 L143,21.07 L148.076,21.07 L148.076,10 L152.558,10 L152.558,21.07 L158.39,21.07 L158.39,24.958 Z" id="latXnt"></path>
            </g>
        </g>
    </g>
</svg>